# xmcd
#
# Track frame offsets:
#	182
#	12210
#	24495
#	36465
#	49642
#	63440
#	76272
#	88980
#	103297
#	116280
#	130097
#	144267
#	156235
#	168777
#	181512
#	194752
#	208365
#	222495
#	236467
#
# Disc length: 3336 seconds
#
# Revision: 0
# Processed by: cddbd v1.5.2PL0 Copyright (c) Steve Scherf et al.
# Submitted via: audiograbber 1.83.01
#
DISCID=080d0613
DTITLE=T-Bone Walker - T-Bone Walker Compilation
DYEAR=1900
DGENRE=Blues
TTITLE0=Dream Girl Blues
TTITLE1=Midnight Blues
TTITLE2=She's my old time used to be
TTITLE3=Long lost lover blues
TTITLE4=Triflin' woman Blues
TTITLE5=Long skirt baby Blues
TTITLE6=Hypin' woman Blues
TTITLE7=So Blue Blues
TTITLE8=On your way Blues
TTITLE9=The natural Blues
TTITLE10=First Love Blues
TTITLE11=Lonesome woman Blues
TTITLE12=The time seems so long
TTITLE13=Prison Blues
TTITLE14=Home town Blues
TTITLE15=Misfortune Blues
TTITLE16=She's the no sleeping est woman
TTITLE17=Plain old down Home Blues
TTITLE18=Go back to the one you love
EXTD=
EXTT0=
EXTT1=
EXTT2=
EXTT3=
EXTT4=
EXTT5=
EXTT6=
EXTT7=
EXTT8=
EXTT9=
EXTT10=
EXTT11=
EXTT12=
EXTT13=
EXTT14=
EXTT15=
EXTT16=
EXTT17=
EXTT18=
PLAYORDER=
